<?xml version="1.0" standalone="yes"?>
<!-- SVG graphic -->
<svg xmlns='http://www.w3.org/2000/svg' xmlns:xlink='http://www.w3.org/1999/xlink'
 version="1.1">
<rect x="0" y="0" width="6" height="200" stroke="black" stroke-width="1" fill="blue" tooltip="enable"><title>(0,6882)</title></rect><rect x="6" y="137.518" width="6" height="62.4818" stroke="black" stroke-width="1" fill="blue" tooltip="enable"><title>(0.0392371,2150)</title></rect><rect x="12" y="148.474" width="6" height="51.5257" stroke="black" stroke-width="1" fill="blue" tooltip="enable"><title>(0.0784742,1773)</title></rect><rect x="18" y="153.938" width="6" height="46.0622" stroke="black" stroke-width="1" fill="blue" tooltip="enable"><title>(0.117711,1585)</title></rect><rect x="24" y="157.28" width="6" height="42.7201" stroke="black" stroke-width="1" fill="blue" tooltip="enable"><title>(0.156948,1470)</title></rect><rect x="30" y="163.412" width="6" height="36.5882" stroke="black" stroke-width="1" fill="blue" tooltip="enable"><title>(0.196186,1259)</title></rect><rect x="36" y="166.289" width="6" height="33.7111" stroke="black" stroke-width="1" fill="blue" tooltip="enable"><title>(0.235423,1160)</title></rect><rect x="42" y="169.021" width="6" height="30.9794" stroke="black" stroke-width="1" fill="blue" tooltip="enable"><title>(0.27466,1066)</title></rect><rect x="48" y="174.891" width="6" height="25.109" stroke="black" stroke-width="1" fill="blue" tooltip="enable"><title>(0.313897,864)</title></rect><rect x="54" y="173.525" width="6" height="26.4749" stroke="black" stroke-width="1" fill="blue" tooltip="enable"><title>(0.353134,911)</title></rect><rect x="60" y="176.751" width="6" height="23.2491" stroke="black" stroke-width="1" fill="blue" tooltip="enable"><title>(0.392371,800)</title></rect><rect x="66" y="178.901" width="6" height="21.0985" stroke="black" stroke-width="1" fill="blue" tooltip="enable"><title>(0.431608,726)</title></rect><rect x="72" y="180.035" width="6" height="19.9651" stroke="black" stroke-width="1" fill="blue" tooltip="enable"><title>(0.470845,687)</title></rect><rect x="78" y="183.609" width="6" height="16.3906" stroke="black" stroke-width="1" fill="blue" tooltip="enable"><title>(0.510082,564)</title></rect><rect x="84" y="185.992" width="6" height="14.0076" stroke="black" stroke-width="1" fill="blue" tooltip="enable"><title>(0.549319,482)</title></rect><rect x="90" y="187.504" width="6" height="12.4964" stroke="black" stroke-width="1" fill="blue" tooltip="enable"><title>(0.588557,430)</title></rect><rect x="96" y="187.794" width="6" height="12.2058" stroke="black" stroke-width="1" fill="blue" tooltip="enable"><title>(0.627794,420)</title></rect><rect x="102" y="188.55" width="6" height="11.4502" stroke="black" stroke-width="1" fill="blue" tooltip="enable"><title>(0.667031,394)</title></rect><rect x="108" y="189.335" width="6" height="10.6655" stroke="black" stroke-width="1" fill="blue" tooltip="enable"><title>(0.706268,367)</title></rect><rect x="114" y="190.671" width="6" height="9.32868" stroke="black" stroke-width="1" fill="blue" tooltip="enable"><title>(0.745505,321)</title></rect><rect x="120" y="191.311" width="6" height="8.68933" stroke="black" stroke-width="1" fill="blue" tooltip="enable"><title>(0.784742,299)</title></rect><rect x="126" y="192.27" width="6" height="7.73031" stroke="black" stroke-width="1" fill="blue" tooltip="enable"><title>(0.823979,266)</title></rect><rect x="132" y="192.241" width="6" height="7.75937" stroke="black" stroke-width="1" fill="blue" tooltip="enable"><title>(0.863216,267)</title></rect><rect x="138" y="193.054" width="6" height="6.94566" stroke="black" stroke-width="1" fill="blue" tooltip="enable"><title>(0.902453,239)</title></rect><rect x="144" y="193.258" width="6" height="6.74223" stroke="black" stroke-width="1" fill="blue" tooltip="enable"><title>(0.94169,232)</title></rect><rect x="150" y="194.071" width="6" height="5.92851" stroke="black" stroke-width="1" fill="blue" tooltip="enable"><title>(0.980928,204)</title></rect><rect x="156" y="194.827" width="6" height="5.17291" stroke="black" stroke-width="1" fill="blue" tooltip="enable"><title>(1.02016,178)</title></rect><rect x="162" y="195.35" width="6" height="4.64981" stroke="black" stroke-width="1" fill="blue" tooltip="enable"><title>(1.0594,160)</title></rect><rect x="168" y="195.525" width="6" height="4.47544" stroke="black" stroke-width="1" fill="blue" tooltip="enable"><title>(1.09864,154)</title></rect><rect x="174" y="196.222" width="6" height="3.77797" stroke="black" stroke-width="1" fill="blue" tooltip="enable"><title>(1.13788,130)</title></rect><rect x="180" y="195.292" width="6" height="4.70793" stroke="black" stroke-width="1" fill="blue" tooltip="enable"><title>(1.17711,162)</title></rect><rect x="186" y="196.077" width="6" height="3.92328" stroke="black" stroke-width="1" fill="blue" tooltip="enable"><title>(1.21635,135)</title></rect><rect x="192" y="195.525" width="6" height="4.47544" stroke="black" stroke-width="1" fill="blue" tooltip="enable"><title>(1.25559,154)</title></rect><rect x="198" y="196.513" width="6" height="3.48736" stroke="black" stroke-width="1" fill="blue" tooltip="enable"><title>(1.29482,120)</title></rect><rect x="204" y="197.181" width="6" height="2.81895" stroke="black" stroke-width="1" fill="blue" tooltip="enable"><title>(1.33406,97)</title></rect><rect x="210" y="196.571" width="6" height="3.42924" stroke="black" stroke-width="1" fill="blue" tooltip="enable"><title>(1.3733,118)</title></rect><rect x="216" y="196.687" width="6" height="3.31299" stroke="black" stroke-width="1" fill="blue" tooltip="enable"><title>(1.41254,114)</title></rect><rect x="222" y="197.007" width="6" height="2.99332" stroke="black" stroke-width="1" fill="blue" tooltip="enable"><title>(1.45177,103)</title></rect><rect x="228" y="197.472" width="6" height="2.52833" stroke="black" stroke-width="1" fill="blue" tooltip="enable"><title>(1.49101,87)</title></rect><rect x="234" y="197.443" width="6" height="2.5574" stroke="black" stroke-width="1" fill="blue" tooltip="enable"><title>(1.53025,88)</title></rect><rect x="240" y="198.111" width="6" height="1.88899" stroke="black" stroke-width="1" fill="blue" tooltip="enable"><title>(1.56948,65)</title></rect><rect x="246" y="198.198" width="6" height="1.8018" stroke="black" stroke-width="1" fill="blue" tooltip="enable"><title>(1.60872,62)</title></rect><rect x="252" y="197.995" width="6" height="2.00523" stroke="black" stroke-width="1" fill="blue" tooltip="enable"><title>(1.64796,69)</title></rect><rect x="258" y="198.111" width="6" height="1.88899" stroke="black" stroke-width="1" fill="blue" tooltip="enable"><title>(1.6872,65)</title></rect><rect x="264" y="198.256" width="6" height="1.74368" stroke="black" stroke-width="1" fill="blue" tooltip="enable"><title>(1.72643,60)</title></rect><rect x="270" y="198.285" width="6" height="1.71462" stroke="black" stroke-width="1" fill="blue" tooltip="enable"><title>(1.76567,59)</title></rect><rect x="276" y="198.867" width="6" height="1.13339" stroke="black" stroke-width="1" fill="blue" tooltip="enable"><title>(1.80491,39)</title></rect><rect x="282" y="198.402" width="6" height="1.59837" stroke="black" stroke-width="1" fill="blue" tooltip="enable"><title>(1.84414,55)</title></rect><rect x="288" y="198.692" width="6" height="1.30776" stroke="black" stroke-width="1" fill="blue" tooltip="enable"><title>(1.88338,45)</title></rect><rect x="294" y="198.489" width="6" height="1.51119" stroke="black" stroke-width="1" fill="blue" tooltip="enable"><title>(1.92262,52)</title></rect><rect x="300" y="198.314" width="6" height="1.68556" stroke="black" stroke-width="1" fill="blue" tooltip="enable"><title>(1.96186,58)</title></rect><rect x="306" y="198.634" width="6" height="1.36588" stroke="black" stroke-width="1" fill="blue" tooltip="enable"><title>(2.00109,47)</title></rect><rect x="312" y="198.518" width="6" height="1.48213" stroke="black" stroke-width="1" fill="blue" tooltip="enable"><title>(2.04033,51)</title></rect><rect x="318" y="198.779" width="6" height="1.22058" stroke="black" stroke-width="1" fill="blue" tooltip="enable"><title>(2.07957,42)</title></rect><rect x="324" y="199.012" width="6" height="0.988085" stroke="black" stroke-width="1" fill="blue" tooltip="enable"><title>(2.1188,34)</title></rect><rect x="330" y="198.721" width="6" height="1.2787" stroke="black" stroke-width="1" fill="blue" tooltip="enable"><title>(2.15804,44)</title></rect><rect x="336" y="198.489" width="6" height="1.51119" stroke="black" stroke-width="1" fill="blue" tooltip="enable"><title>(2.19728,52)</title></rect><rect x="342" y="198.779" width="6" height="1.22058" stroke="black" stroke-width="1" fill="blue" tooltip="enable"><title>(2.23651,42)</title></rect><rect x="348" y="199.157" width="6" height="0.842778" stroke="black" stroke-width="1" fill="blue" tooltip="enable"><title>(2.27575,29)</title></rect><rect x="354" y="199.273" width="6" height="0.726533" stroke="black" stroke-width="1" fill="blue" tooltip="enable"><title>(2.31499,25)</title></rect><rect x="360" y="199.39" width="6" height="0.610288" stroke="black" stroke-width="1" fill="blue" tooltip="enable"><title>(2.35423,21)</title></rect><rect x="366" y="199.332" width="6" height="0.66841" stroke="black" stroke-width="1" fill="blue" tooltip="enable"><title>(2.39346,23)</title></rect><rect x="372" y="199.215" width="6" height="0.784656" stroke="black" stroke-width="1" fill="blue" tooltip="enable"><title>(2.4327,27)</title></rect><rect x="378" y="199.332" width="6" height="0.66841" stroke="black" stroke-width="1" fill="blue" tooltip="enable"><title>(2.47194,23)</title></rect><rect x="384" y="199.041" width="6" height="0.959024" stroke="black" stroke-width="1" fill="blue" tooltip="enable"><title>(2.51117,33)</title></rect><rect x="390" y="199.506" width="6" height="0.494042" stroke="black" stroke-width="1" fill="blue" tooltip="enable"><title>(2.55041,17)</title></rect><rect x="396" y="199.128" width="6" height="0.87184" stroke="black" stroke-width="1" fill="blue" tooltip="enable"><title>(2.58965,30)</title></rect><rect x="402" y="199.448" width="6" height="0.552165" stroke="black" stroke-width="1" fill="blue" tooltip="enable"><title>(2.62889,19)</title></rect><rect x="408" y="199.535" width="6" height="0.464981" stroke="black" stroke-width="1" fill="blue" tooltip="enable"><title>(2.66812,16)</title></rect><rect x="414" y="199.303" width="6" height="0.697472" stroke="black" stroke-width="1" fill="blue" tooltip="enable"><title>(2.70736,24)</title></rect><rect x="420" y="199.506" width="6" height="0.494042" stroke="black" stroke-width="1" fill="blue" tooltip="enable"><title>(2.7466,17)</title></rect><rect x="426" y="199.419" width="6" height="0.581226" stroke="black" stroke-width="1" fill="blue" tooltip="enable"><title>(2.78583,20)</title></rect><rect x="432" y="199.564" width="6" height="0.43592" stroke="black" stroke-width="1" fill="blue" tooltip="enable"><title>(2.82507,15)</title></rect><rect x="438" y="199.622" width="6" height="0.377797" stroke="black" stroke-width="1" fill="blue" tooltip="enable"><title>(2.86431,13)</title></rect><rect x="444" y="199.361" width="6" height="0.639349" stroke="black" stroke-width="1" fill="blue" tooltip="enable"><title>(2.90355,22)</title></rect><rect x="450" y="199.535" width="6" height="0.464981" stroke="black" stroke-width="1" fill="blue" tooltip="enable"><title>(2.94278,16)</title></rect><rect x="456" y="199.535" width="6" height="0.464981" stroke="black" stroke-width="1" fill="blue" tooltip="enable"><title>(2.98202,16)</title></rect><rect x="462" y="199.477" width="6" height="0.523104" stroke="black" stroke-width="1" fill="blue" tooltip="enable"><title>(3.02126,18)</title></rect><rect x="468" y="199.709" width="6" height="0.290613" stroke="black" stroke-width="1" fill="blue" tooltip="enable"><title>(3.06049,10)</title></rect><rect x="474" y="199.448" width="6" height="0.552165" stroke="black" stroke-width="1" fill="blue" tooltip="enable"><title>(3.09973,19)</title></rect><rect x="480" y="199.797" width="6" height="0.203429" stroke="black" stroke-width="1" fill="blue" tooltip="enable"><title>(3.13897,7)</title></rect><rect x="486" y="199.651" width="6" height="0.348736" stroke="black" stroke-width="1" fill="blue" tooltip="enable"><title>(3.17821,12)</title></rect><rect x="492" y="199.709" width="6" height="0.290613" stroke="black" stroke-width="1" fill="blue" tooltip="enable"><title>(3.21744,10)</title></rect><rect x="498" y="199.506" width="6" height="0.494042" stroke="black" stroke-width="1" fill="blue" tooltip="enable"><title>(3.25668,17)</title></rect><rect x="504" y="199.622" width="6" height="0.377797" stroke="black" stroke-width="1" fill="blue" tooltip="enable"><title>(3.29592,13)</title></rect><rect x="510" y="199.738" width="6" height="0.261552" stroke="black" stroke-width="1" fill="blue" tooltip="enable"><title>(3.33515,9)</title></rect><rect x="516" y="199.68" width="6" height="0.319675" stroke="black" stroke-width="1" fill="blue" tooltip="enable"><title>(3.37439,11)</title></rect><rect x="522" y="199.797" width="6" height="0.203429" stroke="black" stroke-width="1" fill="blue" tooltip="enable"><title>(3.41363,7)</title></rect><rect x="528" y="199.564" width="6" height="0.43592" stroke="black" stroke-width="1" fill="blue" tooltip="enable"><title>(3.45286,15)</title></rect><rect x="534" y="199.797" width="6" height="0.203429" stroke="black" stroke-width="1" fill="blue" tooltip="enable"><title>(3.4921,7)</title></rect><rect x="540" y="199.68" width="6" height="0.319675" stroke="black" stroke-width="1" fill="blue" tooltip="enable"><title>(3.53134,11)</title></rect><rect x="546" y="199.738" width="6" height="0.261552" stroke="black" stroke-width="1" fill="blue" tooltip="enable"><title>(3.57058,9)</title></rect><rect x="552" y="199.768" width="6" height="0.232491" stroke="black" stroke-width="1" fill="blue" tooltip="enable"><title>(3.60981,8)</title></rect><rect x="558" y="199.768" width="6" height="0.232491" stroke="black" stroke-width="1" fill="blue" tooltip="enable"><title>(3.64905,8)</title></rect><rect x="564" y="199.738" width="6" height="0.261552" stroke="black" stroke-width="1" fill="blue" tooltip="enable"><title>(3.68829,9)</title></rect><rect x="570" y="199.738" width="6" height="0.261552" stroke="black" stroke-width="1" fill="blue" tooltip="enable"><title>(3.72752,9)</title></rect><rect x="576" y="199.855" width="6" height="0.145307" stroke="black" stroke-width="1" fill="blue" tooltip="enable"><title>(3.76676,5)</title></rect><rect x="582" y="199.942" width="6" height="0.0581226" stroke="black" stroke-width="1" fill="blue" tooltip="enable"><title>(3.806,2)</title></rect><rect x="588" y="199.971" width="6" height="0.0290613" stroke="black" stroke-width="1" fill="blue" tooltip="enable"><title>(3.84524,1)</title></rect><rect x="594" y="199.884" width="6" height="0.116245" stroke="black" stroke-width="1" fill="blue" tooltip="enable"><title>(3.88447,4)</title></rect><text x="30" y="240" font-size="20" fill="black">0</text>
<text x="600" y="240" font-size="20" fill="black">3.92371</text>
<polyline points="0,220,600,220" stroke="black" stroke-width="1" fill="none"/>
<text x="720" y="20" font-size="20" fill="black">6882</text>
<text x="720" y="200" font-size="20" fill="black">0</text>
<polyline points="660,0,660,200" stroke="black" stroke-width="1" fill="none"/>
</svg>