<?xml version="1.0" standalone="yes"?>
<!-- SVG graphic -->
<svg xmlns='http://www.w3.org/2000/svg' xmlns:xlink='http://www.w3.org/1999/xlink'
 version="1.1">
<rect x="0" y="0" width="6" height="200" stroke="black" stroke-width="1" fill="blue" tooltip="enable"><title>(0,6802)</title></rect><rect x="6" y="129.109" width="6" height="70.8909" stroke="black" stroke-width="1" fill="blue" tooltip="enable"><title>(0.0398553,2411)</title></rect><rect x="12" y="140.841" width="6" height="59.1591" stroke="black" stroke-width="1" fill="blue" tooltip="enable"><title>(0.0797106,2012)</title></rect><rect x="18" y="149.662" width="6" height="50.3381" stroke="black" stroke-width="1" fill="blue" tooltip="enable"><title>(0.119566,1712)</title></rect><rect x="24" y="153.308" width="6" height="46.6922" stroke="black" stroke-width="1" fill="blue" tooltip="enable"><title>(0.159421,1588)</title></rect><rect x="30" y="161.6" width="6" height="38.4005" stroke="black" stroke-width="1" fill="blue" tooltip="enable"><title>(0.199277,1306)</title></rect><rect x="36" y="167.157" width="6" height="32.8433" stroke="black" stroke-width="1" fill="blue" tooltip="enable"><title>(0.239132,1117)</title></rect><rect x="42" y="172.126" width="6" height="27.8742" stroke="black" stroke-width="1" fill="blue" tooltip="enable"><title>(0.278987,948)</title></rect><rect x="48" y="174.713" width="6" height="25.2867" stroke="black" stroke-width="1" fill="blue" tooltip="enable"><title>(0.318843,860)</title></rect><rect x="54" y="177.801" width="6" height="22.1994" stroke="black" stroke-width="1" fill="blue" tooltip="enable"><title>(0.358698,755)</title></rect><rect x="60" y="180.947" width="6" height="19.0532" stroke="black" stroke-width="1" fill="blue" tooltip="enable"><title>(0.398553,648)</title></rect><rect x="66" y="182.299" width="6" height="17.7007" stroke="black" stroke-width="1" fill="blue" tooltip="enable"><title>(0.438408,602)</title></rect><rect x="72" y="185.004" width="6" height="14.9956" stroke="black" stroke-width="1" fill="blue" tooltip="enable"><title>(0.478264,510)</title></rect><rect x="78" y="186.533" width="6" height="13.4666" stroke="black" stroke-width="1" fill="blue" tooltip="enable"><title>(0.518119,458)</title></rect><rect x="84" y="187.21" width="6" height="12.7904" stroke="black" stroke-width="1" fill="blue" tooltip="enable"><title>(0.557974,435)</title></rect><rect x="90" y="187.68" width="6" height="12.3199" stroke="black" stroke-width="1" fill="blue" tooltip="enable"><title>(0.59783,419)</title></rect><rect x="96" y="189.621" width="6" height="10.3793" stroke="black" stroke-width="1" fill="blue" tooltip="enable"><title>(0.637685,353)</title></rect><rect x="102" y="189.65" width="6" height="10.3499" stroke="black" stroke-width="1" fill="blue" tooltip="enable"><title>(0.67754,352)</title></rect><rect x="108" y="191.208" width="6" height="8.79153" stroke="black" stroke-width="1" fill="blue" tooltip="enable"><title>(0.717396,299)</title></rect><rect x="114" y="192.708" width="6" height="7.29197" stroke="black" stroke-width="1" fill="blue" tooltip="enable"><title>(0.757251,248)</title></rect><rect x="120" y="193.325" width="6" height="6.67451" stroke="black" stroke-width="1" fill="blue" tooltip="enable"><title>(0.797106,227)</title></rect><rect x="126" y="193.914" width="6" height="6.08645" stroke="black" stroke-width="1" fill="blue" tooltip="enable"><title>(0.836962,207)</title></rect><rect x="132" y="193.767" width="6" height="6.23346" stroke="black" stroke-width="1" fill="blue" tooltip="enable"><title>(0.876817,212)</title></rect><rect x="138" y="195.06" width="6" height="4.93972" stroke="black" stroke-width="1" fill="blue" tooltip="enable"><title>(0.916672,168)</title></rect><rect x="144" y="194.943" width="6" height="5.05734" stroke="black" stroke-width="1" fill="blue" tooltip="enable"><title>(0.956528,172)</title></rect><rect x="150" y="195.354" width="6" height="4.64569" stroke="black" stroke-width="1" fill="blue" tooltip="enable"><title>(0.996383,158)</title></rect><rect x="156" y="195.942" width="6" height="4.05763" stroke="black" stroke-width="1" fill="blue" tooltip="enable"><title>(1.03624,138)</title></rect><rect x="162" y="196.266" width="6" height="3.7342" stroke="black" stroke-width="1" fill="blue" tooltip="enable"><title>(1.07609,127)</title></rect><rect x="168" y="195.678" width="6" height="4.32226" stroke="black" stroke-width="1" fill="blue" tooltip="enable"><title>(1.11595,147)</title></rect><rect x="174" y="196.501" width="6" height="3.49897" stroke="black" stroke-width="1" fill="blue" tooltip="enable"><title>(1.1558,119)</title></rect><rect x="180" y="196.619" width="6" height="3.38136" stroke="black" stroke-width="1" fill="blue" tooltip="enable"><title>(1.19566,115)</title></rect><rect x="186" y="196.648" width="6" height="3.35196" stroke="black" stroke-width="1" fill="blue" tooltip="enable"><title>(1.23551,114)</title></rect><rect x="192" y="197.236" width="6" height="2.76389" stroke="black" stroke-width="1" fill="blue" tooltip="enable"><title>(1.27537,94)</title></rect><rect x="198" y="197.001" width="6" height="2.99912" stroke="black" stroke-width="1" fill="blue" tooltip="enable"><title>(1.31523,102)</title></rect><rect x="204" y="197.383" width="6" height="2.61688" stroke="black" stroke-width="1" fill="blue" tooltip="enable"><title>(1.35508,89)</title></rect><rect x="210" y="197.471" width="6" height="2.52867" stroke="black" stroke-width="1" fill="blue" tooltip="enable"><title>(1.39494,86)</title></rect><rect x="216" y="197.442" width="6" height="2.55807" stroke="black" stroke-width="1" fill="blue" tooltip="enable"><title>(1.43479,87)</title></rect><rect x="222" y="198.383" width="6" height="1.61717" stroke="black" stroke-width="1" fill="blue" tooltip="enable"><title>(1.47465,55)</title></rect><rect x="228" y="198.001" width="6" height="1.99941" stroke="black" stroke-width="1" fill="blue" tooltip="enable"><title>(1.5145,68)</title></rect><rect x="234" y="198.442" width="6" height="1.55837" stroke="black" stroke-width="1" fill="blue" tooltip="enable"><title>(1.55436,53)</title></rect><rect x="240" y="198.353" width="6" height="1.64657" stroke="black" stroke-width="1" fill="blue" tooltip="enable"><title>(1.59421,56)</title></rect><rect x="246" y="198.118" width="6" height="1.8818" stroke="black" stroke-width="1" fill="blue" tooltip="enable"><title>(1.63407,64)</title></rect><rect x="252" y="198.295" width="6" height="1.70538" stroke="black" stroke-width="1" fill="blue" tooltip="enable"><title>(1.67392,58)</title></rect><rect x="258" y="198.471" width="6" height="1.52896" stroke="black" stroke-width="1" fill="blue" tooltip="enable"><title>(1.71378,52)</title></rect><rect x="264" y="198.265" width="6" height="1.73478" stroke="black" stroke-width="1" fill="blue" tooltip="enable"><title>(1.75363,59)</title></rect><rect x="270" y="198.148" width="6" height="1.8524" stroke="black" stroke-width="1" fill="blue" tooltip="enable"><title>(1.79349,63)</title></rect><rect x="276" y="198.736" width="6" height="1.26433" stroke="black" stroke-width="1" fill="blue" tooltip="enable"><title>(1.83334,43)</title></rect><rect x="282" y="198.53" width="6" height="1.47016" stroke="black" stroke-width="1" fill="blue" tooltip="enable"><title>(1.8732,50)</title></rect><rect x="288" y="199.03" width="6" height="0.970303" stroke="black" stroke-width="1" fill="blue" tooltip="enable"><title>(1.91306,33)</title></rect><rect x="294" y="199.03" width="6" height="0.970303" stroke="black" stroke-width="1" fill="blue" tooltip="enable"><title>(1.95291,33)</title></rect><rect x="300" y="199.324" width="6" height="0.676272" stroke="black" stroke-width="1" fill="blue" tooltip="enable"><title>(1.99277,23)</title></rect><rect x="306" y="199.03" width="6" height="0.970303" stroke="black" stroke-width="1" fill="blue" tooltip="enable"><title>(2.03262,33)</title></rect><rect x="312" y="199.059" width="6" height="0.9409" stroke="black" stroke-width="1" fill="blue" tooltip="enable"><title>(2.07248,32)</title></rect><rect x="318" y="199.236" width="6" height="0.764481" stroke="black" stroke-width="1" fill="blue" tooltip="enable"><title>(2.11233,26)</title></rect><rect x="324" y="199.147" width="6" height="0.85269" stroke="black" stroke-width="1" fill="blue" tooltip="enable"><title>(2.15219,29)</title></rect><rect x="330" y="199.236" width="6" height="0.764481" stroke="black" stroke-width="1" fill="blue" tooltip="enable"><title>(2.19204,26)</title></rect><rect x="336" y="199.177" width="6" height="0.823287" stroke="black" stroke-width="1" fill="blue" tooltip="enable"><title>(2.2319,28)</title></rect><rect x="342" y="199.383" width="6" height="0.617465" stroke="black" stroke-width="1" fill="blue" tooltip="enable"><title>(2.27175,21)</title></rect><rect x="348" y="199.147" width="6" height="0.85269" stroke="black" stroke-width="1" fill="blue" tooltip="enable"><title>(2.31161,29)</title></rect><rect x="354" y="199.236" width="6" height="0.764481" stroke="black" stroke-width="1" fill="blue" tooltip="enable"><title>(2.35146,26)</title></rect><rect x="360" y="199.412" width="6" height="0.588062" stroke="black" stroke-width="1" fill="blue" tooltip="enable"><title>(2.39132,20)</title></rect><rect x="366" y="199.471" width="6" height="0.529256" stroke="black" stroke-width="1" fill="blue" tooltip="enable"><title>(2.43117,18)</title></rect><rect x="372" y="199.294" width="6" height="0.705675" stroke="black" stroke-width="1" fill="blue" tooltip="enable"><title>(2.47103,24)</title></rect><rect x="378" y="199.471" width="6" height="0.529256" stroke="black" stroke-width="1" fill="blue" tooltip="enable"><title>(2.51089,18)</title></rect><rect x="384" y="199.588" width="6" height="0.411644" stroke="black" stroke-width="1" fill="blue" tooltip="enable"><title>(2.55074,14)</title></rect><rect x="390" y="199.5" width="6" height="0.499853" stroke="black" stroke-width="1" fill="blue" tooltip="enable"><title>(2.5906,17)</title></rect><rect x="396" y="199.353" width="6" height="0.646869" stroke="black" stroke-width="1" fill="blue" tooltip="enable"><title>(2.63045,22)</title></rect><rect x="402" y="199.618" width="6" height="0.382241" stroke="black" stroke-width="1" fill="blue" tooltip="enable"><title>(2.67031,13)</title></rect><rect x="408" y="199.53" width="6" height="0.47045" stroke="black" stroke-width="1" fill="blue" tooltip="enable"><title>(2.71016,16)</title></rect><rect x="414" y="199.647" width="6" height="0.352837" stroke="black" stroke-width="1" fill="blue" tooltip="enable"><title>(2.75002,12)</title></rect><rect x="420" y="199.706" width="6" height="0.294031" stroke="black" stroke-width="1" fill="blue" tooltip="enable"><title>(2.78987,10)</title></rect><rect x="426" y="199.706" width="6" height="0.294031" stroke="black" stroke-width="1" fill="blue" tooltip="enable"><title>(2.82973,10)</title></rect><rect x="432" y="199.559" width="6" height="0.441047" stroke="black" stroke-width="1" fill="blue" tooltip="enable"><title>(2.86958,15)</title></rect><rect x="438" y="199.471" width="6" height="0.529256" stroke="black" stroke-width="1" fill="blue" tooltip="enable"><title>(2.90944,18)</title></rect><rect x="444" y="199.324" width="6" height="0.676272" stroke="black" stroke-width="1" fill="blue" tooltip="enable"><title>(2.94929,23)</title></rect><rect x="450" y="199.677" width="6" height="0.323434" stroke="black" stroke-width="1" fill="blue" tooltip="enable"><title>(2.98915,11)</title></rect><rect x="456" y="199.735" width="6" height="0.264628" stroke="black" stroke-width="1" fill="blue" tooltip="enable"><title>(3.029,9)</title></rect><rect x="462" y="199.706" width="6" height="0.294031" stroke="black" stroke-width="1" fill="blue" tooltip="enable"><title>(3.06886,10)</title></rect><rect x="468" y="199.559" width="6" height="0.441047" stroke="black" stroke-width="1" fill="blue" tooltip="enable"><title>(3.10871,15)</title></rect><rect x="474" y="199.735" width="6" height="0.264628" stroke="black" stroke-width="1" fill="blue" tooltip="enable"><title>(3.14857,9)</title></rect><rect x="480" y="199.735" width="6" height="0.264628" stroke="black" stroke-width="1" fill="blue" tooltip="enable"><title>(3.18843,9)</title></rect><rect x="486" y="199.618" width="6" height="0.382241" stroke="black" stroke-width="1" fill="blue" tooltip="enable"><title>(3.22828,13)</title></rect><rect x="492" y="199.765" width="6" height="0.235225" stroke="black" stroke-width="1" fill="blue" tooltip="enable"><title>(3.26814,8)</title></rect><rect x="498" y="199.794" width="6" height="0.205822" stroke="black" stroke-width="1" fill="blue" tooltip="enable"><title>(3.30799,7)</title></rect><rect x="504" y="199.824" width="6" height="0.176419" stroke="black" stroke-width="1" fill="blue" tooltip="enable"><title>(3.34785,6)</title></rect><rect x="510" y="199.882" width="6" height="0.117612" stroke="black" stroke-width="1" fill="blue" tooltip="enable"><title>(3.3877,4)</title></rect><rect x="516" y="199.794" width="6" height="0.205822" stroke="black" stroke-width="1" fill="blue" tooltip="enable"><title>(3.42756,7)</title></rect><rect x="522" y="199.853" width="6" height="0.147016" stroke="black" stroke-width="1" fill="blue" tooltip="enable"><title>(3.46741,5)</title></rect><rect x="528" y="199.882" width="6" height="0.117612" stroke="black" stroke-width="1" fill="blue" tooltip="enable"><title>(3.50727,4)</title></rect><rect x="534" y="199.824" width="6" height="0.176419" stroke="black" stroke-width="1" fill="blue" tooltip="enable"><title>(3.54712,6)</title></rect><rect x="540" y="199.971" width="6" height="0.0294031" stroke="black" stroke-width="1" fill="blue" tooltip="enable"><title>(3.58698,1)</title></rect><rect x="546" y="199.912" width="6" height="0.0882093" stroke="black" stroke-width="1" fill="blue" tooltip="enable"><title>(3.62683,3)</title></rect><rect x="552" y="199.941" width="6" height="0.0588062" stroke="black" stroke-width="1" fill="blue" tooltip="enable"><title>(3.66669,2)</title></rect><rect x="558" y="199.882" width="6" height="0.117612" stroke="black" stroke-width="1" fill="blue" tooltip="enable"><title>(3.70654,4)</title></rect><rect x="564" y="199.912" width="6" height="0.0882093" stroke="black" stroke-width="1" fill="blue" tooltip="enable"><title>(3.7464,3)</title></rect><rect x="570" y="199.912" width="6" height="0.0882093" stroke="black" stroke-width="1" fill="blue" tooltip="enable"><title>(3.78626,3)</title></rect><rect x="576" y="199.971" width="6" height="0.0294031" stroke="black" stroke-width="1" fill="blue" tooltip="enable"><title>(3.82611,1)</title></rect><rect x="582" y="200" width="6" height="0" stroke="black" stroke-width="1" fill="blue" tooltip="enable"><title>(3.86597,0)</title></rect><rect x="588" y="199.941" width="6" height="0.0588062" stroke="black" stroke-width="1" fill="blue" tooltip="enable"><title>(3.90582,2)</title></rect><rect x="594" y="199.971" width="6" height="0.0294031" stroke="black" stroke-width="1" fill="blue" tooltip="enable"><title>(3.94568,1)</title></rect><text x="30" y="240" font-size="20" fill="black">0</text>
<text x="600" y="240" font-size="20" fill="black">3.98553</text>
<polyline points="0,220,600,220" stroke="black" stroke-width="1" fill="none"/>
<text x="720" y="20" font-size="20" fill="black">6802</text>
<text x="720" y="200" font-size="20" fill="black">0</text>
<polyline points="660,0,660,200" stroke="black" stroke-width="1" fill="none"/>
</svg>